<?xml version="1.0" standalone="no"?>
 <!DOCTYPE svg PUBLIC "-//W3C//DTD SVG 1.1//EN" 
 "http://www.w3.org/Graphics/SVG/1.1/DTD/svg11.dtd"> 
<svg
  xmlns:svg="http://www.w3.org/2000/svg"
  xmlns="http://www.w3.org/2000/svg"
  xmlns:xlink="http://www.w3.org/1999/xlink"
  version="1.1"
  width="29.700220cm" height="21.000720cm" viewBox="0 0 116930 82680">
<title>SVG Picture created as simpleKeychain.svg date 2022/06/02 09:56:59 </title>
  <desc>Picture generated by Eeschema-SVG </desc>
<g style="fill:#000000; fill-opacity:1.000000;stroke:#000000; stroke-opacity:1.000000;
stroke-linecap:round; stroke-linejoin:round;"
 transform="translate(0 0) scale(1 1)">
</g>
<g style="fill:#840000; fill-opacity:0.0; 
stroke:#840000; stroke-width:0.000000; stroke-opacity:1; 
stroke-linecap:round; stroke-linejoin:round;">
</g>
<g style="fill:#840000; fill-opacity:0.0; 
stroke:#840000; stroke-width:60.000000; stroke-opacity:1; 
stroke-linecap:round; stroke-linejoin:round;">
<rect x="69685.905512" y="65357.165354" width="42519.685039" height="12598.425197" rx="0.000000" />
<rect x="3937.007874" y="3937.007874" width="109055.984252" height="74805.984252" rx="0.000000" />
<rect x="4724.409449" y="4724.409449" width="107481.181102" height="73231.181102" rx="0.000000" />
<path d="M23622 4724
L23622 3937
" />
<path d="M43307 4724
L43307 3937
" />
<path d="M62992 4724
L62992 3937
" />
<path d="M82677 4724
L82677 3937
" />
<path d="M102362 4724
L102362 3937
" />
<text x="13779.527559" y="4586.614173"
textLength="617.440945" font-size="682.401575" lengthAdjust="spacingAndGlyphs"
text-anchor="start" opacity="0">1</text>
<g class="stroked-text"><desc>1</desc>
<path d="M14199 4562
L13907 4562
" />
<path d="M14053 4562
L14053 4050
L14004 4123
L13955 4172
L13907 4196
" />
</g><text x="33464.566929" y="4586.614173"
textLength="547.440945" font-size="682.401575" lengthAdjust="spacingAndGlyphs"
text-anchor="start" opacity="0">2</text>
<g class="stroked-text"><desc>2</desc>
<path d="M33592 4099
L33616 4074
L33665 4050
L33787 4050
L33835 4074
L33860 4099
L33884 4147
L33884 4196
L33860 4269
L33567 4562
L33884 4562
" />
</g><text x="53149.606299" y="4586.614173"
textLength="547.440945" font-size="682.401575" lengthAdjust="spacingAndGlyphs"
text-anchor="start" opacity="0">3</text>
<g class="stroked-text"><desc>3</desc>
<path d="M53252 4050
L53569 4050
L53398 4245
L53472 4245
L53520 4269
L53545 4294
L53569 4342
L53569 4464
L53545 4513
L53520 4537
L53472 4562
L53325 4562
L53277 4537
L53252 4513
" />
</g><text x="72834.645669" y="4586.614173"
textLength="547.440945" font-size="682.401575" lengthAdjust="spacingAndGlyphs"
text-anchor="start" opacity="0">4</text>
<g class="stroked-text"><desc>4</desc>
<path d="M73205 4221
L73205 4562
" />
<path d="M73083 4026
L72962 4391
L73278 4391
" />
</g><text x="92519.685039" y="4586.614173"
textLength="547.440945" font-size="682.401575" lengthAdjust="spacingAndGlyphs"
text-anchor="start" opacity="0">5</text>
<g class="stroked-text"><desc>5</desc>
<path d="M92915 4050
L92671 4050
L92647 4294
L92671 4269
L92720 4245
L92842 4245
L92890 4269
L92915 4294
L92939 4342
L92939 4464
L92915 4513
L92890 4537
L92842 4562
L92720 4562
L92671 4537
L92647 4513
" />
</g><text x="112204.724409" y="4586.614173"
textLength="547.440945" font-size="682.401575" lengthAdjust="spacingAndGlyphs"
text-anchor="start" opacity="0">6</text>
<g class="stroked-text"><desc>6</desc>
<path d="M112575 4050
L112478 4050
L112429 4074
L112405 4099
L112356 4172
L112332 4269
L112332 4464
L112356 4513
L112380 4537
L112429 4562
L112527 4562
L112575 4537
L112600 4513
L112624 4464
L112624 4342
L112600 4294
L112575 4269
L112527 4245
L112429 4245
L112380 4269
L112356 4294
L112332 4342
" />
</g><path d="M23622 77955
L23622 78742
" />
<path d="M43307 77955
L43307 78742
" />
<path d="M62992 77955
L62992 78742
" />
<path d="M82677 77955
L82677 78742
" />
<path d="M102362 77955
L102362 78742
" />
<text x="13779.527559" y="78605.196850"
textLength="547.440945" font-size="682.401575" lengthAdjust="spacingAndGlyphs"
text-anchor="start" opacity="0">1</text>
<g class="stroked-text"><desc>1</desc>
<path d="M14199 78580
L13907 78580
" />
<path d="M14053 78580
L14053 78068
L14004 78142
L13955 78190
L13907 78215
" />
</g><text x="33464.566929" y="78605.196850"
textLength="547.440945" font-size="682.401575" lengthAdjust="spacingAndGlyphs"
text-anchor="start" opacity="0">2</text>
<g class="stroked-text"><desc>2</desc>
<path d="M33592 78117
L33616 78093
L33665 78068
L33787 78068
L33835 78093
L33860 78117
L33884 78166
L33884 78215
L33860 78288
L33567 78580
L33884 78580
" />
</g><text x="53149.606299" y="78605.196850"
textLength="547.440945" font-size="682.401575" lengthAdjust="spacingAndGlyphs"
text-anchor="start" opacity="0">3</text>
<g class="stroked-text"><desc>3</desc>
<path d="M53252 78068
L53569 78068
L53398 78263
L53472 78263
L53520 78288
L53545 78312
L53569 78361
L53569 78483
L53545 78532
L53520 78556
L53472 78580
L53325 78580
L53277 78556
L53252 78532
" />
</g><text x="72834.645669" y="78605.196850"
textLength="547.440945" font-size="682.401575" lengthAdjust="spacingAndGlyphs"
text-anchor="start" opacity="0">4</text>
<g class="stroked-text"><desc>4</desc>
<path d="M73205 78239
L73205 78580
" />
<path d="M73083 78044
L72962 78410
L73278 78410
" />
</g><text x="92519.685039" y="78605.196850"
textLength="547.440945" font-size="682.401575" lengthAdjust="spacingAndGlyphs"
text-anchor="start" opacity="0">5</text>
<g class="stroked-text"><desc>5</desc>
<path d="M92915 78068
L92671 78068
L92647 78312
L92671 78288
L92720 78263
L92842 78263
L92890 78288
L92915 78312
L92939 78361
L92939 78483
L92915 78532
L92890 78556
L92842 78580
L92720 78580
L92671 78556
L92647 78532
" />
</g><text x="112204.724409" y="78605.196850"
textLength="547.440945" font-size="682.401575" lengthAdjust="spacingAndGlyphs"
text-anchor="start" opacity="0">6</text>
<g class="stroked-text"><desc>6</desc>
<path d="M112575 78068
L112478 78068
L112429 78093
L112405 78117
L112356 78190
L112332 78288
L112332 78483
L112356 78532
L112380 78556
L112429 78580
L112527 78580
L112575 78556
L112600 78532
L112624 78483
L112624 78361
L112600 78312
L112575 78288
L112527 78263
L112429 78263
L112380 78288
L112356 78312
L112332 78361
" />
</g><path d="M3937 23622
L4724 23622
" />
<path d="M3937 43307
L4724 43307
" />
<path d="M3937 62992
L4724 62992
" />
<text x="4330.708661" y="14035.433071"
textLength="498.700787" font-size="682.401575" lengthAdjust="spacingAndGlyphs"
text-anchor="middle" opacity="0">A</text>
<g class="stroked-text"><desc>A</desc>
<path d="M4208 13864
L4452 13864
" />
<path d="M4160 14011
L4330 13499
L4501 14011
" />
</g><text x="4330.708661" y="33720.472441"
textLength="571.811024" font-size="682.401575" lengthAdjust="spacingAndGlyphs"
text-anchor="middle" opacity="0">B</text>
<g class="stroked-text"><desc>B</desc>
<path d="M4367 33427
L4440 33452
L4464 33476
L4489 33525
L4489 33598
L4464 33647
L4440 33671
L4391 33696
L4196 33696
L4196 33184
L4367 33184
L4415 33208
L4440 33233
L4464 33281
L4464 33330
L4440 33379
L4415 33403
L4367 33427
L4196 33427
" />
</g><text x="4330.708661" y="53405.511811"
textLength="571.811024" font-size="682.401575" lengthAdjust="spacingAndGlyphs"
text-anchor="middle" opacity="0">C</text>
<g class="stroked-text"><desc>C</desc>
<path d="M4489 53332
L4464 53356
L4391 53381
L4342 53381
L4269 53356
L4221 53307
L4196 53259
L4172 53161
L4172 53088
L4196 52991
L4221 52942
L4269 52893
L4342 52869
L4391 52869
L4464 52893
L4489 52918
" />
</g><text x="4330.708661" y="73090.551181"
textLength="571.811024" font-size="682.401575" lengthAdjust="spacingAndGlyphs"
text-anchor="middle" opacity="0">D</text>
<g class="stroked-text"><desc>D</desc>
<path d="M4196 73066
L4196 72554
L4318 72554
L4391 72578
L4440 72627
L4464 72676
L4489 72773
L4489 72846
L4464 72944
L4440 72993
L4391 73041
L4318 73066
L4196 73066
" />
</g><path d="M112992 23622
L112205 23622
" />
<path d="M112992 43307
L112205 43307
" />
<path d="M112992 62992
L112205 62992
" />
<text x="112599.291339" y="14035.433071"
textLength="498.700787" font-size="682.401575" lengthAdjust="spacingAndGlyphs"
text-anchor="middle" opacity="0">A</text>
<g class="stroked-text"><desc>A</desc>
<path d="M112477 13864
L112721 13864
" />
<path d="M112428 14011
L112599 13499
L112769 14011
" />
</g><text x="112599.291339" y="33720.472441"
textLength="571.811024" font-size="682.401575" lengthAdjust="spacingAndGlyphs"
text-anchor="middle" opacity="0">B</text>
<g class="stroked-text"><desc>B</desc>
<path d="M112635 33427
L112708 33452
L112733 33476
L112757 33525
L112757 33598
L112733 33647
L112708 33671
L112660 33696
L112465 33696
L112465 33184
L112635 33184
L112684 33208
L112708 33233
L112733 33281
L112733 33330
L112708 33379
L112684 33403
L112635 33427
L112465 33427
" />
</g><text x="112599.291339" y="53405.511811"
textLength="571.811024" font-size="682.401575" lengthAdjust="spacingAndGlyphs"
text-anchor="middle" opacity="0">C</text>
<g class="stroked-text"><desc>C</desc>
<path d="M112757 53332
L112733 53356
L112660 53381
L112611 53381
L112538 53356
L112489 53307
L112465 53259
L112440 53161
L112440 53088
L112465 52991
L112489 52942
L112538 52893
L112611 52869
L112660 52869
L112733 52893
L112757 52918
" />
</g><text x="112599.291339" y="73090.551181"
textLength="571.811024" font-size="682.401575" lengthAdjust="spacingAndGlyphs"
text-anchor="middle" opacity="0">D</text>
<g class="stroked-text"><desc>D</desc>
<path d="M112465 73066
L112465 72554
L112587 72554
L112660 72578
L112708 72627
L112733 72676
L112757 72773
L112757 72846
L112733 72944
L112708 72993
L112660 73041
L112587 73066
L112465 73066
" />
</g><text x="78741.023622" y="76321.732283"
textLength="8721.417323" font-size="787.401575" lengthAdjust="spacingAndGlyphs"
text-anchor="start" opacity="0">Date: 2022-06-02</text>
<g class="stroked-text"><desc>Date: 2022-06-02</desc>
<path d="M78911 76293
L78911 75703
L79052 75703
L79136 75731
L79192 75787
L79220 75843
L79249 75956
L79249 76040
L79220 76152
L79192 76209
L79136 76265
L79052 76293
L78911 76293
" />
<path d="M79755 76293
L79755 75984
L79727 75928
L79670 75899
L79558 75899
L79502 75928
" />
<path d="M79755 76265
L79699 76293
L79558 76293
L79502 76265
L79474 76209
L79474 76152
L79502 76096
L79558 76068
L79699 76068
L79755 76040
" />
<path d="M79952 75899
L80177 75899
" />
<path d="M80036 75703
L80036 76209
L80064 76265
L80120 76293
L80177 76293
" />
<path d="M80598 76265
L80542 76293
L80430 76293
L80373 76265
L80345 76209
L80345 75984
L80373 75928
L80430 75899
L80542 75899
L80598 75928
L80627 75984
L80627 76040
L80345 76096
" />
<path d="M80880 76237
L80908 76265
L80880 76293
L80852 76265
L80880 76237
L80880 76293
" />
<path d="M80880 75928
L80908 75956
L80880 75984
L80852 75956
L80880 75928
L80880 75984
" />
<path d="M81583 75759
L81611 75731
L81667 75703
L81808 75703
L81864 75731
L81892 75759
L81920 75815
L81920 75871
L81892 75956
L81555 76293
L81920 76293
" />
<path d="M82286 75703
L82342 75703
L82398 75731
L82426 75759
L82454 75815
L82483 75928
L82483 76068
L82454 76181
L82426 76237
L82398 76265
L82342 76293
L82286 76293
L82229 76265
L82201 76237
L82173 76181
L82145 76068
L82145 75928
L82173 75815
L82201 75759
L82229 75731
L82286 75703
" />
<path d="M82708 75759
L82736 75731
L82792 75703
L82932 75703
L82989 75731
L83017 75759
L83045 75815
L83045 75871
L83017 75956
L82679 76293
L83045 76293
" />
<path d="M83270 75759
L83298 75731
L83354 75703
L83495 75703
L83551 75731
L83579 75759
L83607 75815
L83607 75871
L83579 75956
L83242 76293
L83607 76293
" />
<path d="M83860 76068
L84310 76068
" />
<path d="M84704 75703
L84760 75703
L84817 75731
L84845 75759
L84873 75815
L84901 75928
L84901 76068
L84873 76181
L84845 76237
L84817 76265
L84760 76293
L84704 76293
L84648 76265
L84620 76237
L84592 76181
L84564 76068
L84564 75928
L84592 75815
L84620 75759
L84648 75731
L84704 75703
" />
<path d="M85407 75703
L85295 75703
L85238 75731
L85210 75759
L85154 75843
L85126 75956
L85126 76181
L85154 76237
L85182 76265
L85238 76293
L85351 76293
L85407 76265
L85435 76237
L85463 76181
L85463 76040
L85435 75984
L85407 75956
L85351 75928
L85238 75928
L85182 75956
L85154 75984
L85126 76040
" />
<path d="M85717 76068
L86166 76068
" />
<path d="M86560 75703
L86616 75703
L86673 75731
L86701 75759
L86729 75815
L86757 75928
L86757 76068
L86729 76181
L86701 76237
L86673 76265
L86616 76293
L86560 76293
L86504 76265
L86476 76237
L86448 76181
L86420 76068
L86420 75928
L86448 75815
L86476 75759
L86504 75731
L86560 75703
" />
<path d="M86982 75759
L87010 75731
L87066 75703
L87207 75703
L87263 75731
L87291 75759
L87319 75815
L87319 75871
L87291 75956
L86954 76293
L87319 76293
" />
</g><path d="M69685 76577
L112205 76577
" />
<text x="70079.606299" y="77424.094488"
textLength="13530.196850" font-size="787.401575" lengthAdjust="spacingAndGlyphs"
text-anchor="start" opacity="0">KiCad E.D.A.  kicad (6.0.5-0)</text>
<g class="stroked-text"><desc>KiCad E.D.A.  kicad (6.0.5-0)</desc>
<path d="M70250 77395
L70250 76805
" />
<path d="M70587 77395
L70334 77058
" />
<path d="M70587 76805
L70250 77142
" />
<path d="M70840 77395
L70840 77002
" />
<path d="M70840 76805
L70812 76833
L70840 76861
L70868 76833
L70840 76805
L70840 76861
" />
<path d="M71459 77339
L71431 77367
L71346 77395
L71290 77395
L71206 77367
L71150 77311
L71121 77255
L71093 77142
L71093 77058
L71121 76946
L71150 76889
L71206 76833
L71290 76805
L71346 76805
L71431 76833
L71459 76861
" />
<path d="M71965 77395
L71965 77086
L71937 77030
L71881 77002
L71768 77002
L71712 77030
" />
<path d="M71965 77367
L71909 77395
L71768 77395
L71712 77367
L71684 77311
L71684 77255
L71712 77199
L71768 77170
L71909 77170
L71965 77142
" />
<path d="M72499 77395
L72499 76805
" />
<path d="M72499 77367
L72443 77395
L72331 77395
L72274 77367
L72246 77339
L72218 77283
L72218 77114
L72246 77058
L72274 77030
L72331 77002
L72443 77002
L72499 77030
" />
<path d="M73231 77086
L73427 77086
" />
<path d="M73512 77395
L73231 77395
L73231 76805
L73512 76805
" />
<path d="M73765 77339
L73793 77367
L73765 77395
L73737 77367
L73765 77339
L73765 77395
" />
<path d="M74046 77395
L74046 76805
L74187 76805
L74271 76833
L74327 76889
L74355 76946
L74384 77058
L74384 77142
L74355 77255
L74327 77311
L74271 77367
L74187 77395
L74046 77395
" />
<path d="M74637 77339
L74665 77367
L74637 77395
L74609 77367
L74637 77339
L74637 77395
" />
<path d="M74890 77227
L75171 77227
" />
<path d="M74834 77395
L75030 76805
L75227 77395
" />
<path d="M75424 77339
L75452 77367
L75424 77395
L75396 77367
L75424 77339
L75424 77395
" />
<path d="M76605 77395
L76605 76805
" />
<path d="M76661 77170
L76830 77395
" />
<path d="M76830 77002
L76605 77227
" />
<path d="M77083 77395
L77083 77002
" />
<path d="M77083 76805
L77055 76833
L77083 76861
L77111 76833
L77083 76805
L77083 76861
" />
<path d="M77618 77367
L77561 77395
L77449 77395
L77393 77367
L77364 77339
L77336 77283
L77336 77114
L77364 77058
L77393 77030
L77449 77002
L77561 77002
L77618 77030
" />
<path d="M78124 77395
L78124 77086
L78096 77030
L78039 77002
L77927 77002
L77871 77030
" />
<path d="M78124 77367
L78067 77395
L77927 77395
L77871 77367
L77842 77311
L77842 77255
L77871 77199
L77927 77170
L78067 77170
L78124 77142
" />
<path d="M78658 77395
L78658 76805
" />
<path d="M78658 77367
L78602 77395
L78489 77395
L78433 77367
L78405 77339
L78377 77283
L78377 77114
L78405 77058
L78433 77030
L78489 77002
L78602 77002
L78658 77030
" />
<path d="M79558 77620
L79530 77592
L79474 77508
L79445 77452
L79417 77367
L79389 77227
L79389 77114
L79417 76974
L79445 76889
L79474 76833
L79530 76749
L79558 76721
" />
<path d="M80036 76805
L79923 76805
L79867 76833
L79839 76861
L79783 76946
L79755 77058
L79755 77283
L79783 77339
L79811 77367
L79867 77395
L79980 77395
L80036 77367
L80064 77339
L80092 77283
L80092 77142
L80064 77086
L80036 77058
L79980 77030
L79867 77030
L79811 77058
L79783 77086
L79755 77142
" />
<path d="M80345 77339
L80373 77367
L80345 77395
L80317 77367
L80345 77339
L80345 77395
" />
<path d="M80739 76805
L80795 76805
L80852 76833
L80880 76861
L80908 76917
L80936 77030
L80936 77170
L80908 77283
L80880 77339
L80852 77367
L80795 77395
L80739 77395
L80683 77367
L80655 77339
L80627 77283
L80598 77170
L80598 77030
L80627 76917
L80655 76861
L80683 76833
L80739 76805
" />
<path d="M81189 77339
L81217 77367
L81189 77395
L81161 77367
L81189 77339
L81189 77395
" />
<path d="M81751 76805
L81470 76805
L81442 77086
L81470 77058
L81526 77030
L81667 77030
L81723 77058
L81751 77086
L81780 77142
L81780 77283
L81751 77339
L81723 77367
L81667 77395
L81526 77395
L81470 77367
L81442 77339
" />
<path d="M82033 77170
L82483 77170
" />
<path d="M82876 76805
L82932 76805
L82989 76833
L83017 76861
L83045 76917
L83073 77030
L83073 77170
L83045 77283
L83017 77339
L82989 77367
L82932 77395
L82876 77395
L82820 77367
L82792 77339
L82764 77283
L82736 77170
L82736 77030
L82764 76917
L82792 76861
L82820 76833
L82876 76805
" />
<path d="M83270 77620
L83298 77592
L83354 77508
L83382 77452
L83411 77367
L83439 77227
L83439 77114
L83411 76974
L83382 76889
L83354 76833
L83298 76749
L83270 76721
" />
</g><path d="M69685 75396
L112205 75396
" />
</g>
<g style="fill:#840000; fill-opacity:0.0; 
stroke:#840000; stroke-width:118.110236; stroke-opacity:1; 
stroke-linecap:round; stroke-linejoin:round;">
<text x="103544.173228" y="76321.732283"
textLength="2900.275591" font-size="787.401575" lengthAdjust="spacingAndGlyphs"
text-anchor="start" opacity="0">Rev: 1</text>
<g class="stroked-text"><desc>Rev: 1</desc>
<path d="M104098 76293
L103902 76012
" />
<path d="M103761 76293
L103761 75703
L103986 75703
L104042 75731
L104070 75759
L104098 75815
L104098 75899
L104070 75956
L104042 75984
L103986 76012
L103761 76012
" />
<path d="M104577 76265
L104520 76293
L104408 76293
L104352 76265
L104323 76209
L104323 75984
L104352 75928
L104408 75899
L104520 75899
L104577 75928
L104605 75984
L104605 76040
L104323 76096
" />
<path d="M104802 75899
L104942 76293
L105083 75899
" />
<path d="M105308 76237
L105336 76265
L105308 76293
L105280 76265
L105308 76237
L105308 76293
" />
<path d="M105308 75928
L105336 75956
L105308 75984
L105280 75956
L105308 75928
L105308 75984
" />
<path d="M106348 76293
L106011 76293
" />
<path d="M106180 76293
L106180 75703
L106123 75787
L106067 75843
L106011 75871
" />
</g></g>
<g style="fill:#840000; fill-opacity:0.0; 
stroke:#840000; stroke-width:60.000000; stroke-opacity:1; 
stroke-linecap:round; stroke-linejoin:round;">
<text x="70079.606299" y="76321.732283"
textLength="3781.220472" font-size="787.401575" lengthAdjust="spacingAndGlyphs"
text-anchor="start" opacity="0">Size: A4</text>
<g class="stroked-text"><desc>Size: A4</desc>
<path d="M70222 76265
L70306 76293
L70447 76293
L70503 76265
L70531 76237
L70559 76181
L70559 76124
L70531 76068
L70503 76040
L70447 76012
L70334 75984
L70278 75956
L70250 75928
L70222 75871
L70222 75815
L70250 75759
L70278 75731
L70334 75703
L70475 75703
L70559 75731
" />
<path d="M70812 76293
L70812 75899
" />
<path d="M70812 75703
L70784 75731
L70812 75759
L70840 75731
L70812 75703
L70812 75759
" />
<path d="M71037 75899
L71346 75899
L71037 76293
L71346 76293
" />
<path d="M71796 76265
L71740 76293
L71628 76293
L71571 76265
L71543 76209
L71543 75984
L71571 75928
L71628 75899
L71740 75899
L71796 75928
L71825 75984
L71825 76040
L71543 76096
" />
<path d="M72078 76237
L72106 76265
L72078 76293
L72049 76265
L72078 76237
L72078 76293
" />
<path d="M72078 75928
L72106 75956
L72078 75984
L72049 75956
L72078 75928
L72078 75984
" />
<path d="M72781 76124
L73062 76124
" />
<path d="M72724 76293
L72921 75703
L73118 76293
" />
<path d="M73568 75899
L73568 76293
" />
<path d="M73427 75674
L73287 76096
L73652 76096
" />
</g><text x="103544.173228" y="77424.094488"
textLength="3350.196850" font-size="787.401575" lengthAdjust="spacingAndGlyphs"
text-anchor="start" opacity="0">Id: 1/1</text>
<g class="stroked-text"><desc>Id: 1/1</desc>
<path d="M103714 77395
L103714 76805
" />
<path d="M104249 77395
L104249 76805
" />
<path d="M104249 77367
L104192 77395
L104080 77395
L104024 77367
L103995 77339
L103967 77283
L103967 77114
L103995 77058
L104024 77030
L104080 77002
L104192 77002
L104249 77030
" />
<path d="M104530 77339
L104558 77367
L104530 77395
L104502 77367
L104530 77339
L104530 77395
" />
<path d="M104530 77030
L104558 77058
L104530 77086
L104502 77058
L104530 77030
L104530 77086
" />
<path d="M105570 77395
L105233 77395
" />
<path d="M105402 77395
L105402 76805
L105345 76889
L105289 76946
L105233 76974
" />
<path d="M106245 76777
L105739 77536
" />
<path d="M106751 77395
L106414 77395
" />
<path d="M106583 77395
L106583 76805
L106526 76889
L106470 76946
L106414 76974
" />
</g><path d="M69685 73821
L112205 73821
" />
</g>
<g style="fill:#840000; fill-opacity:0.0; 
stroke:#840000; stroke-width:157.480315; stroke-opacity:1; 
stroke-linecap:round; stroke-linejoin:round;">
<text x="70079.606299" y="74924.094488"
textLength="13529.291339" font-size="1049.842520" lengthAdjust="spacingAndGlyphs"
text-anchor="start" opacity="0">Title: Simple Keychain</text>
<g class="stroked-text"><desc>Title: Simple Keychain</desc>
<path d="M70360 74099
L70810 74099
" />
<path d="M70486 74886
L70585 74099
" />
<path d="M70974 74886
L71039 74361
" />
<path d="M71072 74099
L71030 74136
L71063 74174
L71105 74136
L71072 74099
L71063 74174
" />
<path d="M71302 74361
L71602 74361
" />
<path d="M71447 74099
L71363 74774
L71391 74849
L71461 74886
L71536 74886
" />
<path d="M71911 74886
L71841 74849
L71812 74774
L71897 74099
" />
<path d="M72516 74849
L72436 74886
L72286 74886
L72216 74849
L72187 74774
L72225 74474
L72272 74399
L72352 74361
L72501 74361
L72572 74399
L72600 74474
L72591 74549
L72206 74624
" />
<path d="M72895 74811
L72928 74849
L72886 74886
L72853 74849
L72895 74811
L72886 74886
" />
<path d="M72947 74399
L72980 74436
L72937 74474
L72905 74436
L72947 74399
L72937 74474
" />
<path d="M73828 74849
L73936 74886
L74123 74886
L74203 74849
L74245 74811
L74292 74736
L74301 74661
L74273 74586
L74240 74549
L74170 74511
L74025 74474
L73954 74436
L73922 74399
L73893 74324
L73903 74249
L73950 74174
L73992 74136
L74072 74099
L74259 74099
L74367 74136
" />
<path d="M74611 74886
L74676 74361
" />
<path d="M74709 74099
L74667 74136
L74700 74174
L74742 74136
L74709 74099
L74700 74174
" />
<path d="M74986 74886
L75051 74361
" />
<path d="M75042 74436
L75084 74399
L75164 74361
L75276 74361
L75346 74399
L75375 74474
L75323 74886
" />
<path d="M75375 74474
L75421 74399
L75501 74361
L75614 74361
L75684 74399
L75712 74474
L75660 74886
" />
<path d="M76101 74361
L76003 75149
" />
<path d="M76096 74399
L76176 74361
L76326 74361
L76396 74399
L76429 74436
L76457 74511
L76429 74736
L76382 74811
L76340 74849
L76260 74886
L76110 74886
L76040 74849
" />
<path d="M76860 74886
L76790 74849
L76762 74774
L76846 74099
" />
<path d="M77465 74849
L77385 74886
L77235 74886
L77165 74849
L77137 74774
L77174 74474
L77221 74399
L77301 74361
L77451 74361
L77521 74399
L77549 74474
L77540 74549
L77156 74624
" />
<path d="M78435 74886
L78534 74099
" />
<path d="M78885 74886
L78604 74436
" />
<path d="M78983 74099
L78477 74549
" />
<path d="M79527 74849
L79447 74886
L79297 74886
L79227 74849
L79199 74774
L79237 74474
L79283 74399
L79363 74361
L79513 74361
L79583 74399
L79612 74474
L79602 74549
L79218 74624
" />
<path d="M79888 74361
L80010 74886
" />
<path d="M80263 74361
L80010 74886
L79911 75074
L79869 75111
L79790 75149
" />
<path d="M80840 74849
L80760 74886
L80610 74886
L80540 74849
L80507 74811
L80479 74736
L80507 74511
L80554 74436
L80596 74399
L80675 74361
L80825 74361
L80896 74399
" />
<path d="M81172 74886
L81271 74099
" />
<path d="M81510 74886
L81561 74474
L81533 74399
L81463 74361
L81350 74361
L81271 74399
L81229 74436
" />
<path d="M82222 74886
L82274 74474
L82246 74399
L82175 74361
L82025 74361
L81946 74399
" />
<path d="M82227 74849
L82147 74886
L81960 74886
L81889 74849
L81861 74774
L81871 74699
L81917 74624
L81997 74586
L82185 74586
L82264 74549
" />
<path d="M82597 74886
L82663 74361
" />
<path d="M82696 74099
L82653 74136
L82686 74174
L82728 74136
L82696 74099
L82686 74174
" />
<path d="M83038 74361
L82972 74886
" />
<path d="M83028 74436
L83070 74399
L83150 74361
L83263 74361
L83333 74399
L83361 74474
L83310 74886
" />
</g></g>
<g style="fill:#840000; fill-opacity:0.0; 
stroke:#840000; stroke-width:60.000000; stroke-opacity:1; 
stroke-linecap:round; stroke-linejoin:round;">
<text x="70079.606299" y="73408.346457"
textLength="13956.141732" font-size="787.401575" lengthAdjust="spacingAndGlyphs"
text-anchor="start" opacity="0">File: simpleKeychain.kicad_sch</text>
<g class="stroked-text"><desc>File: simpleKeychain.kicad_sch</desc>
<path d="M70447 73070
L70250 73070
" />
<path d="M70250 73380
L70250 72789
L70531 72789
" />
<path d="M70756 73380
L70756 72986
" />
<path d="M70756 72789
L70728 72817
L70756 72845
L70784 72817
L70756 72789
L70756 72845
" />
<path d="M71121 73380
L71065 73352
L71037 73295
L71037 72789
" />
<path d="M71571 73352
L71515 73380
L71403 73380
L71346 73352
L71318 73295
L71318 73070
L71346 73014
L71403 72986
L71515 72986
L71571 73014
L71600 73070
L71600 73127
L71318 73183
" />
<path d="M71853 73323
L71881 73352
L71853 73380
L71825 73352
L71853 73323
L71853 73380
" />
<path d="M71853 73014
L71881 73042
L71853 73070
L71825 73042
L71853 73014
L71853 73070
" />
<path d="M72556 73352
L72612 73380
L72724 73380
L72781 73352
L72809 73295
L72809 73267
L72781 73211
L72724 73183
L72640 73183
L72584 73155
L72556 73098
L72556 73070
L72584 73014
L72640 72986
L72724 72986
L72781 73014
" />
<path d="M73062 73380
L73062 72986
" />
<path d="M73062 72789
L73034 72817
L73062 72845
L73090 72817
L73062 72789
L73062 72845
" />
<path d="M73343 73380
L73343 72986
" />
<path d="M73343 73042
L73371 73014
L73427 72986
L73512 72986
L73568 73014
L73596 73070
L73596 73380
" />
<path d="M73596 73070
L73624 73014
L73681 72986
L73765 72986
L73821 73014
L73849 73070
L73849 73380
" />
<path d="M74130 72986
L74130 73577
" />
<path d="M74130 73014
L74187 72986
L74299 72986
L74355 73014
L74384 73042
L74412 73098
L74412 73267
L74384 73323
L74355 73352
L74299 73380
L74187 73380
L74130 73352
" />
<path d="M74749 73380
L74693 73352
L74665 73295
L74665 72789
" />
<path d="M75199 73352
L75143 73380
L75030 73380
L74974 73352
L74946 73295
L74946 73070
L74974 73014
L75030 72986
L75143 72986
L75199 73014
L75227 73070
L75227 73127
L74946 73183
" />
<path d="M75480 73380
L75480 72789
" />
<path d="M75818 73380
L75565 73042
" />
<path d="M75818 72789
L75480 73127
" />
<path d="M76296 73352
L76240 73380
L76127 73380
L76071 73352
L76043 73295
L76043 73070
L76071 73014
L76127 72986
L76240 72986
L76296 73014
L76324 73070
L76324 73127
L76043 73183
" />
<path d="M76521 72986
L76661 73380
" />
<path d="M76802 72986
L76661 73380
L76605 73520
L76577 73548
L76521 73577
" />
<path d="M77280 73352
L77224 73380
L77111 73380
L77055 73352
L77027 73323
L76999 73267
L76999 73098
L77027 73042
L77055 73014
L77111 72986
L77224 72986
L77280 73014
" />
<path d="M77533 73380
L77533 72789
" />
<path d="M77786 73380
L77786 73070
L77758 73014
L77702 72986
L77618 72986
L77561 73014
L77533 73042
" />
<path d="M78321 73380
L78321 73070
L78292 73014
L78236 72986
L78124 72986
L78067 73014
" />
<path d="M78321 73352
L78264 73380
L78124 73380
L78067 73352
L78039 73295
L78039 73239
L78067 73183
L78124 73155
L78264 73155
L78321 73127
" />
<path d="M78602 73380
L78602 72986
" />
<path d="M78602 72789
L78574 72817
L78602 72845
L78630 72817
L78602 72789
L78602 72845
" />
<path d="M78883 72986
L78883 73380
" />
<path d="M78883 73042
L78911 73014
L78967 72986
L79052 72986
L79108 73014
L79136 73070
L79136 73380
" />
<path d="M79417 73323
L79445 73352
L79417 73380
L79389 73352
L79417 73323
L79417 73380
" />
<path d="M79699 73380
L79699 72789
" />
<path d="M79755 73155
L79923 73380
" />
<path d="M79923 72986
L79699 73211
" />
<path d="M80177 73380
L80177 72986
" />
<path d="M80177 72789
L80148 72817
L80177 72845
L80205 72817
L80177 72789
L80177 72845
" />
<path d="M80711 73352
L80655 73380
L80542 73380
L80486 73352
L80458 73323
L80430 73267
L80430 73098
L80458 73042
L80486 73014
L80542 72986
L80655 72986
L80711 73014
" />
<path d="M81217 73380
L81217 73070
L81189 73014
L81133 72986
L81020 72986
L80964 73014
" />
<path d="M81217 73352
L81161 73380
L81020 73380
L80964 73352
L80936 73295
L80936 73239
L80964 73183
L81020 73155
L81161 73155
L81217 73127
" />
<path d="M81751 73380
L81751 72789
" />
<path d="M81751 73352
L81695 73380
L81583 73380
L81526 73352
L81498 73323
L81470 73267
L81470 73098
L81498 73042
L81526 73014
L81583 72986
L81695 72986
L81751 73014
" />
<path d="M81892 73436
L82342 73436
" />
<path d="M82454 73352
L82511 73380
L82623 73380
L82679 73352
L82708 73295
L82708 73267
L82679 73211
L82623 73183
L82539 73183
L82483 73155
L82454 73098
L82454 73070
L82483 73014
L82539 72986
L82623 72986
L82679 73014
" />
<path d="M83214 73352
L83157 73380
L83045 73380
L82989 73352
L82961 73323
L82932 73267
L82932 73098
L82961 73042
L82989 73014
L83045 72986
L83157 72986
L83214 73014
" />
<path d="M83467 73380
L83467 72789
" />
<path d="M83720 73380
L83720 73070
L83692 73014
L83636 72986
L83551 72986
L83495 73014
L83467 73042
" />
</g><path d="M69685 71459
L112205 71459
" />
<text x="70079.606299" y="72345.354331"
textLength="3856.417323" font-size="787.401575" lengthAdjust="spacingAndGlyphs"
text-anchor="start" opacity="0">Sheet: /</text>
<g class="stroked-text"><desc>Sheet: /</desc>
<path d="M70222 72289
L70306 72317
L70447 72317
L70503 72289
L70531 72260
L70559 72204
L70559 72148
L70531 72092
L70503 72064
L70447 72035
L70334 72007
L70278 71979
L70250 71951
L70222 71895
L70222 71839
L70250 71782
L70278 71754
L70334 71726
L70475 71726
L70559 71754
" />
<path d="M70812 72317
L70812 71726
" />
<path d="M71065 72317
L71065 72007
L71037 71951
L70981 71923
L70897 71923
L70840 71951
L70812 71979
" />
<path d="M71571 72289
L71515 72317
L71403 72317
L71346 72289
L71318 72232
L71318 72007
L71346 71951
L71403 71923
L71515 71923
L71571 71951
L71600 72007
L71600 72064
L71318 72120
" />
<path d="M72078 72289
L72021 72317
L71909 72317
L71853 72289
L71825 72232
L71825 72007
L71853 71951
L71909 71923
L72021 71923
L72078 71951
L72106 72007
L72106 72064
L71825 72120
" />
<path d="M72274 71923
L72499 71923
" />
<path d="M72359 71726
L72359 72232
L72387 72289
L72443 72317
L72499 72317
" />
<path d="M72696 72260
L72724 72289
L72696 72317
L72668 72289
L72696 72260
L72696 72317
" />
<path d="M72696 71951
L72724 71979
L72696 72007
L72668 71979
L72696 71951
L72696 72007
" />
<path d="M73849 71698
L73343 72457
" />
</g></g>
<g style="fill:#840000; fill-opacity:0.0; 
stroke:#840000; stroke-width:118.110236; stroke-opacity:1; 
stroke-linecap:round; stroke-linejoin:round;">
<text x="70079.606299" y="71164.251969"
textLength="60.000000" font-size="787.401575" lengthAdjust="spacingAndGlyphs"
text-anchor="start" opacity="0"></text>
<g class="stroked-text"><desc></desc>
</g></g>
<g style="fill:#840000; fill-opacity:0.0; 
stroke:#840000; stroke-width:60.000000; stroke-opacity:1; 
stroke-linecap:round; stroke-linejoin:round;">
<text x="70079.606299" y="69983.149606"
textLength="118.110236" font-size="787.401575" lengthAdjust="spacingAndGlyphs"
text-anchor="start" opacity="0"></text>
<g class="stroked-text"><desc></desc>
</g><text x="70079.606299" y="68802.047244"
textLength="60.000000" font-size="787.401575" lengthAdjust="spacingAndGlyphs"
text-anchor="start" opacity="0"></text>
<g class="stroked-text"><desc></desc>
</g><text x="70079.606299" y="67620.944882"
textLength="60.000000" font-size="787.401575" lengthAdjust="spacingAndGlyphs"
text-anchor="start" opacity="0"></text>
<g class="stroked-text"><desc></desc>
</g><text x="70079.606299" y="66439.842520"
textLength="60.000000" font-size="787.401575" lengthAdjust="spacingAndGlyphs"
text-anchor="start" opacity="0"></text>
<g class="stroked-text"><desc></desc>
</g><path d="M77559 75396
L77559 76577
" />
<path d="M102756 75396
L102756 77955
" />
<g >
</g>
<g style="fill:#840000; fill-opacity:0.0; 
stroke:#840000; stroke-width:100.000000; stroke-opacity:1; 
stroke-linecap:round; stroke-linejoin:round;">
<path style="fill:#840000; fill-opacity:0.0; 
stroke:#840000; stroke-width:100.000000; stroke-opacity:1; 
stroke-linecap:round; stroke-linejoin:round;fill:none"
d="M 61500.000000,30000.000000
60500.000000,30000.000000
" /> 
</g>
<g style="fill:#840000; fill-opacity:0.0; 
stroke:#840000; stroke-width:60.000000; stroke-opacity:1; 
stroke-linecap:round; stroke-linejoin:round;">
<path style="fill:#840000; fill-opacity:0.0; 
stroke:#840000; stroke-width:60.000000; stroke-opacity:1; 
stroke-linecap:round; stroke-linejoin:round;fill:none"
d="M 61000.000000,30000.000000
61000.000000,29000.000000
" /> 
</g>
<g style="fill:#840000; fill-opacity:0.0; 
stroke:#840000; stroke-width:100.000000; stroke-opacity:1; 
stroke-linecap:round; stroke-linejoin:round;">
<path style="fill:#840000; fill-opacity:0.0; 
stroke:#840000; stroke-width:100.000000; stroke-opacity:1; 
stroke-linecap:round; stroke-linejoin:round;fill:none"
d="M 61500.000000,29000.000000
60500.000000,29000.000000
61000.000000,30000.000000
Z" /> 
</g>
<g style="fill:#840000; fill-opacity:0.0; 
stroke:#840000; stroke-width:60.000000; stroke-opacity:1; 
stroke-linecap:round; stroke-linejoin:round;">
<path style="fill:#840000; fill-opacity:0.0; 
stroke:#840000; stroke-width:60.000000; stroke-opacity:1; 
stroke-linecap:round; stroke-linejoin:round;fill:none"
d="M 61300.000000,30700.000000
61900.000000,31300.000000
61900.000000,31000.000000
61900.000000,31300.000000
61600.000000,31300.000000
" /> 
<path style="fill:#840000; fill-opacity:0.0; 
stroke:#840000; stroke-width:60.000000; stroke-opacity:1; 
stroke-linecap:round; stroke-linejoin:round;fill:none"
d="M 61300.000000,30200.000000
61900.000000,30800.000000
61900.000000,30500.000000
61900.000000,30800.000000
61600.000000,30800.000000
" /> 
<path d="M61000 30000
L61000 31000
" />
<path d="M61000 29000
L61000 28000
" />
</g>
<g style="fill:#006464; fill-opacity:0.0; 
stroke:#006464; stroke-width:60.000000; stroke-opacity:1; 
stroke-linecap:round; stroke-linejoin:round;">
<text x="63019.330709" y="29874.960630"
textLength="1036.181102" font-size="666.653543" lengthAdjust="spacingAndGlyphs"
text-anchor="middle" opacity="0">D1</text>
<g class="stroked-text"><desc>D1</desc>
<path d="M62650 29851
L62650 29351
L62769 29351
L62840 29374
L62888 29422
L62912 29470
L62935 29565
L62935 29636
L62912 29732
L62888 29779
L62840 29827
L62769 29851
L62650 29851
" />
<path d="M63412 29851
L63126 29851
" />
<path d="M63269 29851
L63269 29351
L63221 29422
L63174 29470
L63126 29493
" />
</g><text x="63209.803150" y="30874.960630"
textLength="1417.125984" font-size="666.653543" lengthAdjust="spacingAndGlyphs"
text-anchor="middle" opacity="0">LED</text>
<g class="stroked-text"><desc>LED</desc>
<path d="M62888 30851
L62650 30851
L62650 30351
" />
<path d="M63055 30589
L63221 30589
" />
<path d="M63293 30851
L63055 30851
L63055 30351
L63293 30351
" />
<path d="M63507 30851
L63507 30351
L63626 30351
L63697 30374
L63745 30422
L63769 30470
L63793 30565
L63793 30636
L63769 30732
L63745 30779
L63697 30827
L63626 30851
L63507 30851
" />
</g></g>
</g>
<g style="fill:#006464; fill-opacity:0.0; 
stroke:#006464; stroke-width:60.000000; stroke-opacity:1; 
stroke-linecap:round; stroke-linejoin:round;">
<g >
</g>
<g style="fill:#840000; fill-opacity:0.0; 
stroke:#840000; stroke-width:60.000000; stroke-opacity:1; 
stroke-linecap:round; stroke-linejoin:round;">
<path style="fill:#840000; fill-opacity:0.0; 
stroke:#840000; stroke-width:60.000000; stroke-opacity:1; 
stroke-linecap:round; stroke-linejoin:round;fill:none"
d="M 61000.000000,32000.000000
61000.000000,32500.000000
61500.000000,32500.000000
61000.000000,33000.000000
60500.000000,32500.000000
61000.000000,32500.000000
" /> 
</g>
<g style="fill:#006464; fill-opacity:0.0; 
stroke:#006464; stroke-width:60.000000; stroke-opacity:1; 
stroke-linecap:round; stroke-linejoin:round;">
<text x="61000.000000" y="34249.960630"
textLength="1583.818898" font-size="666.653543" lengthAdjust="spacingAndGlyphs"
text-anchor="middle" opacity="0">GND</text>
<g class="stroked-text"><desc>GND</desc>
<path d="M60619 33749
L60571 33726
L60500 33726
L60428 33749
L60380 33797
L60357 33845
L60333 33940
L60333 34011
L60357 34107
L60380 34154
L60428 34202
L60500 34226
L60547 34226
L60619 34202
L60642 34178
L60642 34011
L60547 34011
" />
<path d="M60857 34226
L60857 33726
L61142 34226
L61142 33726
" />
<path d="M61380 34226
L61380 33726
L61500 33726
L61571 33749
L61619 33797
L61642 33845
L61666 33940
L61666 34011
L61642 34107
L61619 34154
L61571 34202
L61500 34226
L61380 34226
" />
</g></g>
</g>
<g style="fill:#006464; fill-opacity:0.0; 
stroke:#006464; stroke-width:60.000000; stroke-opacity:1; 
stroke-linecap:round; stroke-linejoin:round;">
<g >
</g>
<g style="fill:#840000; fill-opacity:0.0; 
stroke:#840000; stroke-width:60.000000; stroke-opacity:1; 
stroke-linecap:round; stroke-linejoin:round;">
</g>
<g style="fill:#840000; fill-opacity:0.0; 
stroke:#840000; stroke-width:100.000000; stroke-opacity:1; 
stroke-linecap:round; stroke-linejoin:round;">
<rect x="60600.000000" y="24500.000000" width="800.000000" height="2000.000000" rx="0.000000" />
</g>
<g style="fill:#840000; fill-opacity:0.0; 
stroke:#840000; stroke-width:60.000000; stroke-opacity:1; 
stroke-linecap:round; stroke-linejoin:round;">
<path d="M61000 26500
L61000 27000
" />
<path d="M61000 24500
L61000 24000
" />
</g>
<g style="fill:#006464; fill-opacity:0.0; 
stroke:#006464; stroke-width:60.000000; stroke-opacity:1; 
stroke-linecap:round; stroke-linejoin:round;">
<text x="62519.330709" y="25249.960630"
textLength="1036.181102" font-size="666.653543" lengthAdjust="spacingAndGlyphs"
text-anchor="middle" opacity="0">R1</text>
<g class="stroked-text"><desc>R1</desc>
<path d="M62435 25226
L62269 24988
" />
<path d="M62150 25226
L62150 24726
L62340 24726
L62388 24749
L62412 24773
L62435 24821
L62435 24892
L62412 24940
L62388 24964
L62340 24988
L62150 24988
" />
<path d="M62912 25226
L62626 25226
" />
<path d="M62769 25226
L62769 24726
L62721 24797
L62674 24845
L62626 24868
" />
</g><text x="62281.259843" y="26249.960630"
textLength="560.000000" font-size="666.653543" lengthAdjust="spacingAndGlyphs"
text-anchor="middle" opacity="0">R</text>
<g class="stroked-text"><desc>R</desc>
<path d="M62435 26226
L62269 25988
" />
<path d="M62150 26226
L62150 25726
L62340 25726
L62388 25749
L62412 25773
L62435 25821
L62435 25892
L62412 25940
L62388 25964
L62340 25988
L62150 25988
" />
</g></g>
</g>
<g style="fill:#006464; fill-opacity:0.0; 
stroke:#006464; stroke-width:60.000000; stroke-opacity:1; 
stroke-linecap:round; stroke-linejoin:round;">
<g >
</g>
<g style="fill:#840000; fill-opacity:0.0; 
stroke:#840000; stroke-width:60.000000; stroke-opacity:1; 
stroke-linecap:round; stroke-linejoin:round;">
<circle cx="54700.000000" cy="22500.000000" r="200.000000" /> 
<path style="fill:#840000; fill-opacity:0.0; 
stroke:#840000; stroke-width:60.000000; stroke-opacity:1; 
stroke-linecap:round; stroke-linejoin:round;fill:none"
d="M 55500.000000,22000.000000
55500.000000,21300.000000
" /> 
<path style="fill:#840000; fill-opacity:0.0; 
stroke:#840000; stroke-width:60.000000; stroke-opacity:1; 
stroke-linecap:round; stroke-linejoin:round;fill:none"
d="M 56500.000000,22000.000000
54500.000000,22000.000000
" /> 
<circle cx="56300.000000" cy="22500.000000" r="200.000000" /> 
<path d="M54500 22500
L53500 22500
" />
<path d="M56500 22500
L57500 22500
" />
</g>
<g style="fill:#006464; fill-opacity:0.0; 
stroke:#006464; stroke-width:60.000000; stroke-opacity:1; 
stroke-linecap:round; stroke-linejoin:round;">
<text x="55500.000000" y="19749.960630"
textLength="1583.818898" font-size="666.653543" lengthAdjust="spacingAndGlyphs"
text-anchor="middle" opacity="0">SW1</text>
<g class="stroked-text"><desc>SW1</desc>
<path d="M54833 19702
L54904 19726
L55023 19726
L55071 19702
L55095 19678
L55119 19630
L55119 19583
L55095 19535
L55071 19511
L55023 19488
L54928 19464
L54880 19440
L54857 19416
L54833 19368
L54833 19321
L54857 19273
L54880 19249
L54928 19226
L55047 19226
L55119 19249
" />
<path d="M55285 19226
L55404 19726
L55500 19368
L55595 19726
L55714 19226
" />
<path d="M56166 19726
L55880 19726
" />
<path d="M56023 19726
L56023 19226
L55976 19297
L55928 19345
L55880 19368
" />
</g><text x="55500.000000" y="20749.960630"
textLength="3298.110236" font-size="666.653543" lengthAdjust="spacingAndGlyphs"
text-anchor="middle" opacity="0">SW_Push</text>
<g class="stroked-text"><desc>SW_Push</desc>
<path d="M53976 20702
L54047 20726
L54166 20726
L54214 20702
L54238 20678
L54261 20630
L54261 20583
L54238 20535
L54214 20511
L54166 20488
L54071 20464
L54023 20440
L54000 20416
L53976 20368
L53976 20321
L54000 20273
L54023 20249
L54071 20226
L54190 20226
L54261 20249
" />
<path d="M54428 20226
L54547 20726
L54642 20368
L54738 20726
L54857 20226
" />
<path d="M54928 20773
L55309 20773
" />
<path d="M55428 20726
L55428 20226
L55619 20226
L55666 20249
L55690 20273
L55714 20321
L55714 20392
L55690 20440
L55666 20464
L55619 20488
L55428 20488
" />
<path d="M56142 20392
L56142 20726
" />
<path d="M55928 20392
L55928 20654
L55952 20702
L56000 20726
L56071 20726
L56119 20702
L56142 20678
" />
<path d="M56357 20702
L56404 20726
L56500 20726
L56547 20702
L56571 20654
L56571 20630
L56547 20583
L56500 20559
L56428 20559
L56380 20535
L56357 20488
L56357 20464
L56380 20416
L56428 20392
L56500 20392
L56547 20416
" />
<path d="M56785 20726
L56785 20226
" />
<path d="M57000 20726
L57000 20464
L56976 20416
L56928 20392
L56857 20392
L56809 20416
L56785 20440
" />
</g></g>
</g>
<g style="fill:#006464; fill-opacity:0.0; 
stroke:#006464; stroke-width:60.000000; stroke-opacity:1; 
stroke-linecap:round; stroke-linejoin:round;">
<g >
</g>
<g style="fill:#840000; fill-opacity:0.0; 
stroke:#840000; stroke-width:60.000000; stroke-opacity:1; 
stroke-linecap:round; stroke-linejoin:round;">
</g>
<g style="fill:#840000; fill-opacity:1.0; 
stroke:#840000; stroke-width:60.000000; stroke-opacity:1; 
stroke-linecap:round; stroke-linejoin:round;">
<rect x="48100.000000" y="27300.000000" width="1800.000000" height="100.000000" rx="0.000000" />
<rect x="48380.000000" y="27530.000000" width="1200.000000" height="200.000000" rx="0.000000" />
</g>
<g style="fill:#840000; fill-opacity:0.0; 
stroke:#840000; stroke-width:60.000000; stroke-opacity:1; 
stroke-linecap:round; stroke-linejoin:round;">
<path style="fill:#840000; fill-opacity:0.0; 
stroke:#840000; stroke-width:60.000000; stroke-opacity:1; 
stroke-linecap:round; stroke-linejoin:round;fill:none"
d="M 49000.000000,27700.000000
49000.000000,28000.000000
" /> 
<path style="fill:#840000; fill-opacity:0.0; 
stroke:#840000; stroke-width:60.000000; stroke-opacity:1; 
stroke-linecap:round; stroke-linejoin:round;fill:none"
d="M 49000.000000,27300.000000
49000.000000,27000.000000
" /> 
</g>
<g style="fill:#840000; fill-opacity:0.0; 
stroke:#840000; stroke-width:100.000000; stroke-opacity:1; 
stroke-linecap:round; stroke-linejoin:round;">
<path style="fill:#840000; fill-opacity:0.0; 
stroke:#840000; stroke-width:100.000000; stroke-opacity:1; 
stroke-linecap:round; stroke-linejoin:round;fill:none"
d="M 49200.000000,26650.000000
49600.000000,26650.000000
" /> 
<path style="fill:#840000; fill-opacity:0.0; 
stroke:#840000; stroke-width:100.000000; stroke-opacity:1; 
stroke-linecap:round; stroke-linejoin:round;fill:none"
d="M 49400.000000,26450.000000
49400.000000,26850.000000
" /> 
</g>
<g style="fill:#840000; fill-opacity:0.0; 
stroke:#840000; stroke-width:60.000000; stroke-opacity:1; 
stroke-linecap:round; stroke-linejoin:round;">
<path d="M49000 27000
L49000 26000
" />
<path d="M49000 28000
L49000 29000
" />
</g>
<g style="fill:#006464; fill-opacity:0.0; 
stroke:#006464; stroke-width:60.000000; stroke-opacity:1; 
stroke-linecap:round; stroke-linejoin:round;">
<text x="51209.803150" y="26949.921260"
textLength="1417.125984" font-size="666.653543" lengthAdjust="spacingAndGlyphs"
text-anchor="middle" opacity="0">BT1</text>
<g class="stroked-text"><desc>BT1</desc>
<path d="M50816 26664
L50888 26687
L50912 26711
L50935 26759
L50935 26830
L50912 26878
L50888 26902
L50840 26926
L50650 26926
L50650 26426
L50816 26426
L50864 26449
L50888 26473
L50912 26521
L50912 26568
L50888 26616
L50864 26640
L50816 26664
L50650 26664
" />
<path d="M51078 26426
L51364 26426
" />
<path d="M51221 26926
L51221 26426
" />
<path d="M51793 26926
L51507 26926
" />
<path d="M51650 26926
L51650 26426
L51602 26497
L51555 26545
L51507 26568
" />
</g><text x="52769.330709" y="27949.921260"
textLength="4536.181102" font-size="666.653543" lengthAdjust="spacingAndGlyphs"
text-anchor="middle" opacity="0">Battery_Cell</text>
<g class="stroked-text"><desc>Battery_Cell</desc>
<path d="M50816 27664
L50888 27687
L50912 27711
L50935 27759
L50935 27830
L50912 27878
L50888 27902
L50840 27926
L50650 27926
L50650 27426
L50816 27426
L50864 27449
L50888 27473
L50912 27521
L50912 27568
L50888 27616
L50864 27640
L50816 27664
L50650 27664
" />
<path d="M51364 27926
L51364 27664
L51340 27616
L51293 27592
L51197 27592
L51150 27616
" />
<path d="M51364 27902
L51316 27926
L51197 27926
L51150 27902
L51126 27854
L51126 27807
L51150 27759
L51197 27735
L51316 27735
L51364 27711
" />
<path d="M51531 27592
L51721 27592
" />
<path d="M51602 27426
L51602 27854
L51626 27902
L51674 27926
L51721 27926
" />
<path d="M51816 27592
L52007 27592
" />
<path d="M51888 27426
L51888 27854
L51912 27902
L51959 27926
L52007 27926
" />
<path d="M52364 27902
L52316 27926
L52221 27926
L52174 27902
L52150 27854
L52150 27664
L52174 27616
L52221 27592
L52316 27592
L52364 27616
L52388 27664
L52388 27711
L52150 27759
" />
<path d="M52602 27926
L52602 27592
" />
<path d="M52602 27687
L52626 27640
L52650 27616
L52697 27592
L52745 27592
" />
<path d="M52864 27592
L52983 27926
" />
<path d="M53102 27592
L52983 27926
L52935 28045
L52912 28068
L52864 28092
" />
<path d="M53174 27973
L53555 27973
" />
<path d="M53959 27878
L53935 27902
L53864 27926
L53816 27926
L53745 27902
L53697 27854
L53674 27807
L53650 27711
L53650 27640
L53674 27545
L53697 27497
L53745 27449
L53816 27426
L53864 27426
L53935 27449
L53959 27473
" />
<path d="M54364 27902
L54316 27926
L54221 27926
L54174 27902
L54150 27854
L54150 27664
L54174 27616
L54221 27592
L54316 27592
L54364 27616
L54388 27664
L54388 27711
L54150 27759
" />
<path d="M54674 27926
L54626 27902
L54602 27854
L54602 27426
" />
<path d="M54935 27926
L54888 27902
L54864 27854
L54864 27426
" />
</g></g>
</g>
<g style="fill:#006464; fill-opacity:0.0; 
stroke:#006464; stroke-width:60.000000; stroke-opacity:1; 
stroke-linecap:round; stroke-linejoin:round;">
<g >
</g>
<g style="fill:#840000; fill-opacity:0.0; 
stroke:#840000; stroke-width:60.000000; stroke-opacity:1; 
stroke-linecap:round; stroke-linejoin:round;">
<path style="fill:#840000; fill-opacity:0.0; 
stroke:#840000; stroke-width:60.000000; stroke-opacity:1; 
stroke-linecap:round; stroke-linejoin:round;fill:none"
d="M 49000.000000,32000.000000
49000.000000,32500.000000
49500.000000,32500.000000
49000.000000,33000.000000
48500.000000,32500.000000
49000.000000,32500.000000
" /> 
</g>
<g style="fill:#006464; fill-opacity:0.0; 
stroke:#006464; stroke-width:60.000000; stroke-opacity:1; 
stroke-linecap:round; stroke-linejoin:round;">
<text x="49000.000000" y="34249.960630"
textLength="1583.818898" font-size="666.653543" lengthAdjust="spacingAndGlyphs"
text-anchor="middle" opacity="0">GND</text>
<g class="stroked-text"><desc>GND</desc>
<path d="M48619 33749
L48571 33726
L48500 33726
L48428 33749
L48380 33797
L48357 33845
L48333 33940
L48333 34011
L48357 34107
L48380 34154
L48428 34202
L48500 34226
L48547 34226
L48619 34202
L48642 34178
L48642 34011
L48547 34011
" />
<path d="M48857 34226
L48857 33726
L49142 34226
L49142 33726
" />
<path d="M49380 34226
L49380 33726
L49500 33726
L49571 33749
L49619 33797
L49642 33845
L49666 33940
L49666 34011
L49642 34107
L49619 34154
L49571 34202
L49500 34226
L49380 34226
" />
</g></g>
</g>
<g style="fill:#006464; fill-opacity:0.0; 
stroke:#006464; stroke-width:60.000000; stroke-opacity:1; 
stroke-linecap:round; stroke-linejoin:round;">
<g >
</g>
<g style="fill:#840000; fill-opacity:0.0; 
stroke:#840000; stroke-width:60.000000; stroke-opacity:1; 
stroke-linecap:round; stroke-linejoin:round;">
<path style="fill:#840000; fill-opacity:0.0; 
stroke:#840000; stroke-width:60.000000; stroke-opacity:1; 
stroke-linecap:round; stroke-linejoin:round;fill:none"
d="M 34000.000000,32000.000000
34000.000000,32500.000000
34500.000000,32500.000000
34000.000000,33000.000000
33500.000000,32500.000000
34000.000000,32500.000000
" /> 
</g>
<g style="fill:#006464; fill-opacity:0.0; 
stroke:#006464; stroke-width:60.000000; stroke-opacity:1; 
stroke-linecap:round; stroke-linejoin:round;">
<text x="34000.000000" y="34249.960630"
textLength="1583.818898" font-size="666.653543" lengthAdjust="spacingAndGlyphs"
text-anchor="middle" opacity="0">GND</text>
<g class="stroked-text"><desc>GND</desc>
<path d="M33619 33749
L33571 33726
L33500 33726
L33428 33749
L33380 33797
L33357 33845
L33333 33940
L33333 34011
L33357 34107
L33380 34154
L33428 34202
L33500 34226
L33547 34226
L33619 34202
L33642 34178
L33642 34011
L33547 34011
" />
<path d="M33857 34226
L33857 33726
L34142 34226
L34142 33726
" />
<path d="M34380 34226
L34380 33726
L34500 33726
L34571 33749
L34619 33797
L34642 33845
L34666 33940
L34666 34011
L34642 34107
L34619 34154
L34571 34202
L34500 34226
L34380 34226
" />
</g></g>
</g>
<g style="fill:#006464; fill-opacity:0.0; 
stroke:#006464; stroke-width:60.000000; stroke-opacity:1; 
stroke-linecap:round; stroke-linejoin:round;">
<g >
</g>
<g style="fill:#840000; fill-opacity:0.0; 
stroke:#840000; stroke-width:60.000000; stroke-opacity:1; 
stroke-linecap:round; stroke-linejoin:round;">
<path style="fill:#840000; fill-opacity:0.0; 
stroke:#840000; stroke-width:60.000000; stroke-opacity:1; 
stroke-linecap:round; stroke-linejoin:round;fill:none"
d="M 34000.000000,31500.000000
34000.000000,31000.000000
33600.000000,30750.000000
34000.000000,30500.000000
34400.000000,30750.000000
34000.000000,31000.000000
" /> 
<path d="M34000 31500
L34000 31500
" />
</g>
<g style="fill:#006464; fill-opacity:0.0; 
stroke:#006464; stroke-width:60.000000; stroke-opacity:1; 
stroke-linecap:round; stroke-linejoin:round;">
<text x="34000.000000" y="29749.960630"
textLength="3774.291339" font-size="666.653543" lengthAdjust="spacingAndGlyphs"
text-anchor="middle" opacity="0">PWR_FLAG</text>
<g class="stroked-text"><desc>PWR_FLAG</desc>
<path d="M32261 29726
L32261 29226
L32452 29226
L32500 29249
L32523 29273
L32547 29321
L32547 29392
L32523 29440
L32500 29464
L32452 29488
L32261 29488
" />
<path d="M32714 29226
L32833 29726
L32928 29368
L33023 29726
L33142 29226
" />
<path d="M33619 29726
L33452 29488
" />
<path d="M33333 29726
L33333 29226
L33523 29226
L33571 29249
L33595 29273
L33619 29321
L33619 29392
L33595 29440
L33571 29464
L33523 29488
L33333 29488
" />
<path d="M33714 29773
L34095 29773
" />
<path d="M34380 29464
L34214 29464
" />
<path d="M34214 29726
L34214 29226
L34452 29226
" />
<path d="M34880 29726
L34642 29726
L34642 29226
" />
<path d="M35023 29583
L35261 29583
" />
<path d="M34976 29726
L35142 29226
L35309 29726
" />
<path d="M35738 29249
L35690 29226
L35619 29226
L35547 29249
L35500 29297
L35476 29345
L35452 29440
L35452 29511
L35476 29607
L35500 29654
L35547 29702
L35619 29726
L35666 29726
L35738 29702
L35761 29678
L35761 29511
L35666 29511
" />
</g></g>
</g>
<g style="fill:#006464; fill-opacity:0.0; 
stroke:#006464; stroke-width:60.000000; stroke-opacity:1; 
stroke-linecap:round; stroke-linejoin:round;">
<g >
</g>
<g style="fill:#840000; fill-opacity:0.0; 
stroke:#840000; stroke-width:60.000000; stroke-opacity:1; 
stroke-linecap:round; stroke-linejoin:round;">
<path style="fill:#840000; fill-opacity:0.0; 
stroke:#840000; stroke-width:60.000000; stroke-opacity:1; 
stroke-linecap:round; stroke-linejoin:round;fill:none"
d="M 23500.000000,32000.000000
23500.000000,32500.000000
24000.000000,32500.000000
23500.000000,33000.000000
23000.000000,32500.000000
23500.000000,32500.000000
" /> 
</g>
<g style="fill:#006464; fill-opacity:0.0; 
stroke:#006464; stroke-width:60.000000; stroke-opacity:1; 
stroke-linecap:round; stroke-linejoin:round;">
<text x="23500.000000" y="34249.960630"
textLength="1583.818898" font-size="666.653543" lengthAdjust="spacingAndGlyphs"
text-anchor="middle" opacity="0">GND</text>
<g class="stroked-text"><desc>GND</desc>
<path d="M23119 33749
L23071 33726
L23000 33726
L22928 33749
L22880 33797
L22857 33845
L22833 33940
L22833 34011
L22857 34107
L22880 34154
L22928 34202
L23000 34226
L23047 34226
L23119 34202
L23142 34178
L23142 34011
L23047 34011
" />
<path d="M23357 34226
L23357 33726
L23642 34226
L23642 33726
" />
<path d="M23880 34226
L23880 33726
L24000 33726
L24071 33749
L24119 33797
L24142 33845
L24166 33940
L24166 34011
L24142 34107
L24119 34154
L24071 34202
L24000 34226
L23880 34226
" />
</g></g>
</g>
<g style="fill:#006464; fill-opacity:0.0; 
stroke:#006464; stroke-width:60.000000; stroke-opacity:1; 
stroke-linecap:round; stroke-linejoin:round;">
<g >
</g>
<g style="fill:#840000; fill-opacity:0.0; 
stroke:#840000; stroke-width:60.000000; stroke-opacity:1; 
stroke-linecap:round; stroke-linejoin:round;">
</g>
<g style="fill:#840000; fill-opacity:0.0; 
stroke:#840000; stroke-width:500.000000; stroke-opacity:1; 
stroke-linecap:round; stroke-linejoin:round;">
<circle cx="23500.000000" cy="30000.000000" r="500.000000" /> 
</g>
<g style="fill:#840000; fill-opacity:0.0; 
stroke:#840000; stroke-width:60.000000; stroke-opacity:1; 
stroke-linecap:round; stroke-linejoin:round;">
<path d="M23500 30500
L23500 31500
" />
</g>
<g style="fill:#006464; fill-opacity:0.0; 
stroke:#006464; stroke-width:60.000000; stroke-opacity:1; 
stroke-linecap:round; stroke-linejoin:round;">
<text x="25031.259843" y="29749.921260"
textLength="1060.000000" font-size="666.653543" lengthAdjust="spacingAndGlyphs"
text-anchor="middle" opacity="0">H1</text>
<g class="stroked-text"><desc>H1</desc>
<path d="M24650 29726
L24650 29226
" />
<path d="M24650 29464
L24935 29464
" />
<path d="M24935 29726
L24935 29226
" />
<path d="M25435 29726
L25150 29726
" />
<path d="M25293 29726
L25293 29226
L25245 29297
L25197 29345
L25150 29368
" />
</g><text x="27936.023622" y="30749.921260"
textLength="6869.527559" font-size="666.653543" lengthAdjust="spacingAndGlyphs"
text-anchor="middle" opacity="0">MountingHole_Pad</text>
<g class="stroked-text"><desc>MountingHole_Pad</desc>
<path d="M24650 30726
L24650 30226
L24816 30583
L24983 30226
L24983 30726
" />
<path d="M25293 30726
L25245 30702
L25221 30678
L25197 30630
L25197 30487
L25221 30440
L25245 30416
L25293 30392
L25364 30392
L25412 30416
L25436 30440
L25459 30487
L25459 30630
L25436 30678
L25412 30702
L25364 30726
L25293 30726
" />
<path d="M25888 30392
L25888 30726
" />
<path d="M25674 30392
L25674 30654
L25697 30702
L25745 30726
L25816 30726
L25864 30702
L25888 30678
" />
<path d="M26126 30392
L26126 30726
" />
<path d="M26126 30440
L26150 30416
L26197 30392
L26269 30392
L26316 30416
L26340 30464
L26340 30726
" />
<path d="M26507 30392
L26697 30392
" />
<path d="M26578 30226
L26578 30654
L26602 30702
L26650 30726
L26697 30726
" />
<path d="M26864 30726
L26864 30392
" />
<path d="M26864 30226
L26840 30249
L26864 30273
L26888 30249
L26864 30226
L26864 30273
" />
<path d="M27102 30392
L27102 30726
" />
<path d="M27102 30440
L27126 30416
L27174 30392
L27245 30392
L27293 30416
L27316 30464
L27316 30726
" />
<path d="M27769 30392
L27769 30797
L27745 30845
L27721 30868
L27674 30892
L27602 30892
L27555 30868
" />
<path d="M27769 30702
L27721 30726
L27626 30726
L27578 30702
L27555 30678
L27531 30630
L27531 30487
L27555 30440
L27578 30416
L27626 30392
L27721 30392
L27769 30416
" />
<path d="M28007 30726
L28007 30226
" />
<path d="M28007 30464
L28293 30464
" />
<path d="M28293 30726
L28293 30226
" />
<path d="M28602 30726
L28555 30702
L28531 30678
L28507 30630
L28507 30487
L28531 30440
L28555 30416
L28602 30392
L28674 30392
L28721 30416
L28745 30440
L28769 30487
L28769 30630
L28745 30678
L28721 30702
L28674 30726
L28602 30726
" />
<path d="M29055 30726
L29007 30702
L28983 30654
L28983 30226
" />
<path d="M29435 30702
L29388 30726
L29293 30726
L29245 30702
L29221 30654
L29221 30464
L29245 30416
L29293 30392
L29388 30392
L29435 30416
L29459 30464
L29459 30511
L29221 30559
" />
<path d="M29555 30773
L29936 30773
" />
<path d="M30055 30726
L30055 30226
L30245 30226
L30293 30249
L30316 30273
L30340 30321
L30340 30392
L30316 30440
L30293 30464
L30245 30487
L30055 30487
" />
<path d="M30769 30726
L30769 30464
L30745 30416
L30697 30392
L30602 30392
L30555 30416
" />
<path d="M30769 30702
L30721 30726
L30602 30726
L30555 30702
L30531 30654
L30531 30607
L30555 30559
L30602 30535
L30721 30535
L30769 30511
" />
<path d="M31221 30726
L31221 30226
" />
<path d="M31221 30702
L31174 30726
L31078 30726
L31031 30702
L31007 30678
L30983 30630
L30983 30487
L31007 30440
L31031 30416
L31078 30392
L31174 30392
L31221 30416
" />
</g></g>
</g>
<g style="fill:#006464; fill-opacity:0.0; 
stroke:#006464; stroke-width:60.000000; stroke-opacity:1; 
stroke-linecap:round; stroke-linejoin:round;">
</g>
<g style="fill:#009600; fill-opacity:0.0; 
stroke:#009600; stroke-width:60.000000; stroke-opacity:1; 
stroke-linecap:round; stroke-linejoin:round;">
<path d="M61000 31000
L61000 32000
" />
<path d="M61000 22500
L57500 22500
" />
<path d="M61000 24000
L61000 22500
" />
<path d="M61000 27000
L61000 28000
" />
<path d="M49000 22500
L53500 22500
" />
<path d="M49000 26000
L49000 22500
" />
<path d="M49000 29000
L49000 32000
" />
<path d="M34000 31500
L34000 32000
" />
<path d="M23500 32000
L23500 31500
" />
</g> 
</svg>
